<svg width="304" height="304" viewBox="0 0 304 304" fill="none" xmlns="http://www.w3.org/2000/svg">
<g clip-path="url(#clip0_1263_635)">
<path d="M44.1 224C44.3478 222.786 45.0376 221.707 46.0356 220.973C47.0336 220.238 48.2687 219.901 49.5015 220.025C50.7343 220.15 51.877 220.728 52.7079 221.647C53.5389 222.566 53.999 223.761 53.999 225C53.999 226.239 53.5389 227.434 52.7079 228.353C51.877 229.272 50.7343 229.85 49.5015 229.975C48.2687 230.099 47.0336 229.762 46.0356 229.027C45.0376 228.293 44.3478 227.214 44.1 226H0V224H44.1ZM204.1 272C204.348 270.786 205.038 269.707 206.036 268.973C207.034 268.238 208.269 267.901 209.502 268.025C210.734 268.15 211.877 268.728 212.708 269.647C213.539 270.566 213.999 271.761 213.999 273C213.999 274.239 213.539 275.434 212.708 276.353C211.877 277.272 210.734 277.85 209.502 277.975C208.269 278.099 207.034 277.762 206.036 277.027C205.038 276.293 204.348 275.214 204.1 274H82V272H204.1ZM261.9 226C261.652 227.214 260.962 228.293 259.964 229.027C258.966 229.762 257.731 230.099 256.498 229.975C255.266 229.85 254.123 229.272 253.292 228.353C252.461 227.434 252.001 226.239 252.001 225C252.001 223.761 252.461 222.566 253.292 221.647C254.123 220.728 255.266 220.15 256.498 220.025C257.731 219.901 258.966 220.238 259.964 220.973C260.962 221.707 261.652 222.786 261.9 224H304V226H261.9ZM261.9 242C261.652 243.214 260.962 244.293 259.964 245.027C258.966 245.762 257.731 246.099 256.498 245.975C255.266 245.85 254.123 245.272 253.292 244.353C252.461 243.434 252.001 242.239 252.001 241C252.001 239.761 252.461 238.566 253.292 237.647C254.123 236.728 255.266 236.15 256.498 236.025C257.731 235.901 258.966 236.238 259.964 236.973C260.962 237.707 261.652 238.786 261.9 240H304V242H261.9ZM268.1 128C268.348 126.786 269.038 125.707 270.036 124.973C271.034 124.238 272.269 123.901 273.502 124.025C274.734 124.15 275.877 124.728 276.708 125.647C277.539 126.566 277.999 127.761 277.999 129C277.999 130.239 277.539 131.434 276.708 132.353C275.877 133.272 274.734 133.85 273.502 133.975C272.269 134.099 271.034 133.762 270.036 133.027C269.038 132.293 268.348 131.214 268.1 130H181.9C181.652 131.214 180.962 132.293 179.964 133.027C178.966 133.762 177.731 134.099 176.498 133.975C175.266 133.85 174.123 133.272 173.292 132.353C172.461 131.434 172.001 130.239 172.001 129C172.001 127.761 172.461 126.566 173.292 125.647C174.123 124.728 175.266 124.15 176.498 124.025C177.731 123.901 178.966 124.238 179.964 124.973C180.962 125.707 181.652 126.786 181.9 128H268.1ZM12.1 80C12.3478 78.786 13.0376 77.7072 14.0356 76.9728C15.0336 76.2384 16.2687 75.9008 17.5015 76.0253C18.7343 76.1499 19.877 76.7277 20.7079 77.6468C21.5389 78.566 21.999 79.7609 21.999 81C21.999 82.2391 21.5389 83.434 20.7079 84.3532C19.877 85.2723 18.7343 85.8501 17.5015 85.9747C16.2687 86.0992 15.0336 85.7616 14.0356 85.0272C13.0376 84.2928 12.3478 83.214 12.1 82H0V80H12.1ZM197.9 114C197.652 115.214 196.962 116.293 195.964 117.027C194.966 117.762 193.731 118.099 192.498 117.975C191.266 117.85 190.123 117.272 189.292 116.353C188.461 115.434 188.001 114.239 188.001 113C188.001 111.761 188.461 110.566 189.292 109.647C190.123 108.728 191.266 108.15 192.498 108.025C193.731 107.901 194.966 108.238 195.964 108.973C196.962 109.707 197.652 110.786 197.9 112H284.1C284.348 110.786 285.038 109.707 286.036 108.973C287.034 108.238 288.269 107.901 289.502 108.025C290.734 108.15 291.877 108.728 292.708 109.647C293.539 110.566 293.999 111.761 293.999 113C293.999 114.239 293.539 115.434 292.708 116.353C291.877 117.272 290.734 117.85 289.502 117.975C288.269 118.099 287.034 117.762 286.036 117.027C285.038 116.293 284.348 115.214 284.1 114H197.9ZM258 12.1C259.214 12.3478 260.293 13.0376 261.027 14.0356C261.762 15.0336 262.099 16.2687 261.975 17.5015C261.85 18.7343 261.272 19.877 260.353 20.7079C259.434 21.5389 258.239 21.999 257 21.999C255.761 21.999 254.566 21.5389 253.647 20.7079C252.728 19.877 252.15 18.7343 252.025 17.5015C251.901 16.2687 252.238 15.0336 252.973 14.0356C253.707 13.0376 254.786 12.3478 256 12.1V0H258V12.1ZM194 220.1C195.214 220.348 196.293 221.038 197.027 222.036C197.762 223.034 198.099 224.269 197.975 225.502C197.85 226.734 197.272 227.877 196.353 228.708C195.434 229.539 194.239 229.999 193 229.999C191.761 229.999 190.566 229.539 189.647 228.708C188.728 227.877 188.15 226.734 188.025 225.502C187.901 224.269 188.238 223.034 188.973 222.036C189.707 221.038 190.786 220.348 192 220.1V165.9C190.786 165.652 189.707 164.962 188.973 163.964C188.238 162.966 187.901 161.731 188.025 160.498C188.15 159.266 188.728 158.123 189.647 157.292C190.566 156.461 191.761 156.001 193 156.001C194.239 156.001 195.434 156.461 196.353 157.292C197.272 158.123 197.85 159.266 197.975 160.498C198.099 161.731 197.762 162.966 197.027 163.964C196.293 164.962 195.214 165.652 194 165.9V220.1ZM242 21.9V80H304V82H240V21.9C238.786 21.6522 237.707 20.9624 236.973 19.9644C236.238 18.9664 235.901 17.7313 236.025 16.4985C236.15 15.2657 236.728 14.123 237.647 13.2921C238.566 12.4611 239.761 12.001 241 12.001C242.239 12.001 243.434 12.4611 244.353 13.2921C245.272 14.123 245.85 15.2657 245.975 16.4985C246.099 17.7313 245.762 18.9664 245.027 19.9644C244.293 20.9624 243.214 21.6522 242 21.9ZM258 37.9V64H304V66H256V37.9C254.786 37.6522 253.707 36.9624 252.973 35.9644C252.238 34.9664 251.901 33.7313 252.025 32.4985C252.15 31.2657 252.728 30.123 253.647 29.2921C254.566 28.4611 255.761 28.001 257 28.001C258.239 28.001 259.434 28.4611 260.353 29.2921C261.272 30.123 261.85 31.2657 261.975 32.4985C262.099 33.7313 261.762 34.9664 261.027 35.9644C260.293 36.9624 259.214 37.6522 258 37.9ZM130 133.9V208H146V220.1C147.214 220.348 148.293 221.038 149.027 222.036C149.762 223.034 150.099 224.269 149.975 225.502C149.85 226.734 149.272 227.877 148.353 228.708C147.434 229.539 146.239 229.999 145 229.999C143.761 229.999 142.566 229.539 141.647 228.708C140.728 227.877 140.15 226.734 140.025 225.502C139.901 224.269 140.238 223.034 140.973 222.036C141.707 221.038 142.786 220.348 144 220.1V210H128V133.9C126.786 133.652 125.707 132.962 124.973 131.964C124.238 130.966 123.901 129.731 124.025 128.498C124.15 127.266 124.728 126.123 125.647 125.292C126.566 124.461 127.761 124.001 129 124.001C130.239 124.001 131.434 124.461 132.353 125.292C133.272 126.123 133.85 127.266 133.975 128.498C134.099 129.731 133.762 130.966 133.027 131.964C132.293 132.962 131.214 133.652 130 133.9ZM124.1 112C124.348 110.786 125.038 109.707 126.036 108.973C127.034 108.238 128.269 107.901 129.502 108.025C130.734 108.15 131.877 108.728 132.708 109.647C133.539 110.566 133.999 111.761 133.999 113C133.999 114.239 133.539 115.434 132.708 116.353C131.877 117.272 130.734 117.85 129.502 117.975C128.269 118.099 127.034 117.762 126.036 117.027C125.038 116.293 124.348 115.214 124.1 114H114V162H85.9C85.6522 163.214 84.9624 164.293 83.9644 165.027C82.9664 165.762 81.7313 166.099 80.4985 165.975C79.2657 165.85 78.123 165.272 77.2921 164.353C76.4611 163.434 76.001 162.239 76.001 161C76.001 159.761 76.4611 158.566 77.2921 157.647C78.123 156.728 79.2657 156.15 80.4985 156.025C81.7313 155.901 82.9664 156.238 83.9644 156.973C84.9624 157.707 85.6522 158.786 85.9 160H112V112H124.1ZM117.9 242C117.652 243.214 116.962 244.293 115.964 245.027C114.966 245.762 113.731 246.099 112.498 245.975C111.266 245.85 110.123 245.272 109.292 244.353C108.461 243.434 108.001 242.239 108.001 241C108.001 239.761 108.461 238.566 109.292 237.647C110.123 236.728 111.266 236.15 112.498 236.025C113.731 235.901 114.966 236.238 115.964 236.973C116.962 237.707 117.652 238.786 117.9 240H176V165.9C174.786 165.652 173.707 164.962 172.973 163.964C172.238 162.966 171.901 161.731 172.025 160.498C172.15 159.266 172.728 158.123 173.647 157.292C174.566 156.461 175.761 156.001 177 156.001C178.239 156.001 179.434 156.461 180.353 157.292C181.272 158.123 181.85 159.266 181.975 160.498C182.099 161.731 181.762 162.966 181.027 163.964C180.293 164.962 179.214 165.652 178 165.9V242H117.9ZM101.9 178C101.652 179.214 100.962 180.293 99.9644 181.027C98.9664 181.762 97.7313 182.099 96.4985 181.975C95.2657 181.85 94.123 181.272 93.2921 180.353C92.4611 179.434 92.001 178.239 92.001 177C92.001 175.761 92.4611 174.566 93.2921 173.647C94.123 172.728 95.2657 172.15 96.4985 172.025C97.7313 171.901 98.9664 172.238 99.9644 172.973C100.962 173.707 101.652 174.786 101.9 176H114V224H124.1C124.348 222.786 125.038 221.707 126.036 220.973C127.034 220.238 128.269 219.901 129.502 220.025C130.734 220.15 131.877 220.728 132.708 221.647C133.539 222.566 133.999 223.761 133.999 225C133.999 226.239 133.539 227.434 132.708 228.353C131.877 229.272 130.734 229.85 129.502 229.975C128.269 230.099 127.034 229.762 126.036 229.027C125.038 228.293 124.348 227.214 124.1 226H112V178H101.9ZM66 284.1C67.214 284.348 68.2928 285.038 69.0272 286.036C69.7616 287.034 70.0992 288.269 69.9747 289.502C69.8501 290.734 69.2723 291.877 68.3532 292.708C67.434 293.539 66.2391 293.999 65 293.999C63.7609 293.999 62.566 293.539 61.6468 292.708C60.7277 291.877 60.1499 290.734 60.0253 289.502C59.9008 288.269 60.2384 287.034 60.9728 286.036C61.7072 285.038 62.786 284.348 64 284.1V274H50V304H48V272H66V284.1ZM236.1 176C236.348 174.786 237.038 173.707 238.036 172.973C239.034 172.238 240.269 171.901 241.502 172.025C242.734 172.15 243.877 172.728 244.708 173.647C245.539 174.566 245.999 175.761 245.999 177C245.999 178.239 245.539 179.434 244.708 180.353C243.877 181.272 242.734 181.85 241.502 181.975C240.269 182.099 239.034 181.762 238.036 181.027C237.038 180.293 236.348 179.214 236.1 178H226V272H274V304H272V274H224V176H236.1ZM261.9 146C261.652 147.214 260.962 148.293 259.964 149.027C258.966 149.762 257.731 150.099 256.498 149.975C255.266 149.85 254.123 149.272 253.292 148.353C252.461 147.434 252.001 146.239 252.001 145C252.001 143.761 252.461 142.566 253.292 141.647C254.123 140.728 255.266 140.15 256.498 140.025C257.731 139.901 258.966 140.238 259.964 140.973C260.962 141.707 261.652 142.786 261.9 144H274V188.1C275.214 188.348 276.293 189.038 277.027 190.036C277.762 191.034 278.099 192.269 277.975 193.502C277.85 194.734 277.272 195.877 276.353 196.708C275.434 197.539 274.239 197.999 273 197.999C271.761 197.999 270.566 197.539 269.647 196.708C268.728 195.877 268.15 194.734 268.025 193.502C267.901 192.269 268.238 191.034 268.973 190.036C269.707 189.038 270.786 188.348 272 188.1V146H261.9ZM197.9 242C197.652 243.214 196.962 244.293 195.964 245.027C194.966 245.762 193.731 246.099 192.498 245.975C191.266 245.85 190.123 245.272 189.292 244.353C188.461 243.434 188.001 242.239 188.001 241C188.001 239.761 188.461 238.566 189.292 237.647C190.123 236.728 191.266 236.15 192.498 236.025C193.731 235.901 194.966 236.238 195.964 236.973C196.962 237.707 197.652 238.786 197.9 240H208V160H224V146H181.9C181.652 147.214 180.962 148.293 179.964 149.027C178.966 149.762 177.731 150.099 176.498 149.975C175.266 149.85 174.123 149.272 173.292 148.353C172.461 147.434 172.001 146.239 172.001 145C172.001 143.761 172.461 142.566 173.292 141.647C174.123 140.728 175.266 140.15 176.498 140.025C177.731 139.901 178.966 140.238 179.964 140.973C180.962 141.707 181.652 142.786 181.9 144H226V162H210V242H197.9ZM284.1 32C284.348 30.786 285.038 29.7072 286.036 28.9728C287.034 28.2384 288.269 27.9008 289.502 28.0253C290.734 28.1499 291.877 28.7277 292.708 29.6468C293.539 30.566 293.999 31.7609 293.999 33C293.999 34.2391 293.539 35.434 292.708 36.3532C291.877 37.2723 290.734 37.8501 289.502 37.9747C288.269 38.0992 287.034 37.7616 286.036 37.0272C285.038 36.2928 284.348 35.214 284.1 34H272V0H274V32H284.1ZM98 101.9V146H53.9C53.6522 147.214 52.9624 148.293 51.9644 149.027C50.9664 149.762 49.7313 150.099 48.4985 149.975C47.2657 149.85 46.123 149.272 45.2921 148.353C44.4611 147.434 44.001 146.239 44.001 145C44.001 143.761 44.4611 142.566 45.2921 141.647C46.123 140.728 47.2657 140.15 48.4985 140.025C49.7313 139.901 50.9664 140.238 51.9644 140.973C52.9624 141.707 53.6522 142.786 53.9 144H96V101.9C94.786 101.652 93.7072 100.962 92.9728 99.9644C92.2384 98.9664 91.9008 97.7313 92.0253 96.4985C92.1499 95.2657 92.7277 94.123 93.6468 93.2921C94.566 92.4611 95.7609 92.001 97 92.001C98.2391 92.001 99.434 92.4611 100.353 93.2921C101.272 94.123 101.85 95.2657 101.975 96.4985C102.099 97.7313 101.762 98.9664 101.027 99.9644C100.293 100.962 99.214 101.652 98 101.9ZM53.9 34C53.6522 35.214 52.9624 36.2928 51.9644 37.0272C50.9664 37.7616 49.7313 38.0992 48.4985 37.9747C47.2657 37.8501 46.123 37.2723 45.2921 36.3532C44.4611 35.434 44.001 34.2391 44.001 33C44.001 31.7609 44.4611 30.566 45.2921 29.6468C46.123 28.7277 47.2657 28.1499 48.4985 28.0253C49.7313 27.9008 50.9664 28.2384 51.9644 28.9728C52.9624 29.7072 53.6522 30.786 53.9 32H80V0H82V34H53.9ZM114 37.9V66H82V130H69.9C69.6522 131.214 68.9624 132.293 67.9644 133.027C66.9664 133.762 65.7313 134.099 64.4985 133.975C63.2657 133.85 62.123 133.272 61.2921 132.353C60.4611 131.434 60.001 130.239 60.001 129C60.001 127.761 60.4611 126.566 61.2921 125.647C62.123 124.728 63.2657 124.15 64.4985 124.025C65.7313 123.901 66.9664 124.238 67.9644 124.973C68.9624 125.707 69.6522 126.786 69.9 128H80V64H112V37.9C110.786 37.6522 109.707 36.9624 108.973 35.9644C108.238 34.9664 107.901 33.7313 108.025 32.4985C108.15 31.2657 108.728 30.123 109.647 29.2921C110.566 28.4611 111.761 28.001 113 28.001C114.239 28.001 115.434 28.4611 116.353 29.2921C117.272 30.123 117.85 31.2657 117.975 32.4985C118.099 33.7313 117.762 34.9664 117.027 35.9644C116.293 36.9624 115.214 37.6522 114 37.9ZM101.9 82C101.652 83.214 100.962 84.2928 99.9644 85.0272C98.9664 85.7616 97.7313 86.0992 96.4985 85.9747C95.2657 85.8501 94.123 85.2723 93.2921 84.3532C92.4611 83.434 92.001 82.2391 92.001 81C92.001 79.7609 92.4611 78.566 93.2921 77.6468C94.123 76.7277 95.2657 76.1499 96.4985 76.0253C97.7313 75.9008 98.9664 76.2384 99.9644 76.9728C100.962 77.7072 101.652 78.786 101.9 80H128V37.9C126.786 37.6522 125.707 36.9624 124.973 35.9644C124.238 34.9664 123.901 33.7313 124.025 32.4985C124.15 31.2657 124.728 30.123 125.647 29.2921C126.566 28.4611 127.761 28.001 129 28.001C130.239 28.001 131.434 28.4611 132.353 29.2921C133.272 30.123 133.85 31.2657 133.975 32.4985C134.099 33.7313 133.762 34.9664 133.027 35.9644C132.293 36.9624 131.214 37.6522 130 37.9V82H101.9ZM117.9 18C117.652 19.214 116.962 20.2928 115.964 21.0272C114.966 21.7616 113.731 22.0992 112.498 21.9747C111.266 21.8501 110.123 21.2723 109.292 20.3532C108.461 19.434 108.001 18.2391 108.001 17C108.001 15.7609 108.461 14.566 109.292 13.6468C110.123 12.7277 111.266 12.1499 112.498 12.0253C113.731 11.9008 114.966 12.2384 115.964 12.9728C116.962 13.7072 117.652 14.786 117.9 16H146V60.1C147.214 60.3478 148.293 61.0376 149.027 62.0356C149.762 63.0336 150.099 64.2687 149.975 65.5015C149.85 66.7343 149.272 67.877 148.353 68.7079C147.434 69.5389 146.239 69.999 145 69.999C143.761 69.999 142.566 69.5389 141.647 68.7079C140.728 67.877 140.15 66.7343 140.025 65.5015C139.901 64.2687 140.238 63.0336 140.973 62.0356C141.707 61.0376 142.786 60.3478 144 60.1V18H117.9ZM220.1 288C220.348 286.786 221.038 285.707 222.036 284.973C223.034 284.238 224.269 283.901 225.502 284.025C226.734 284.15 227.877 284.728 228.708 285.647C229.539 286.566 229.999 287.761 229.999 289C229.999 290.239 229.539 291.434 228.708 292.353C227.877 293.272 226.734 293.85 225.502 293.975C224.269 294.099 223.034 293.762 222.036 293.027C221.038 292.293 220.348 291.214 220.1 290H98V304H96V288H220.1ZM242 149.9V160H258V194H242V256H290V304H288V258H240V192H256V162H240V149.9C238.786 149.652 237.707 148.962 236.973 147.964C236.238 146.966 235.901 145.731 236.025 144.498C236.15 143.266 236.728 142.123 237.647 141.292C238.566 140.461 239.761 140.001 241 140.001C242.239 140.001 243.434 140.461 244.353 141.292C245.272 142.123 245.85 143.266 245.975 144.498C246.099 145.731 245.762 146.966 245.027 147.964C244.293 148.962 243.214 149.652 242 149.9ZM53.9 18C53.6522 19.214 52.9624 20.2928 51.9644 21.0272C50.9664 21.7616 49.7313 22.0992 48.4985 21.9747C47.2657 21.8501 46.123 21.2723 45.2921 20.3532C44.4611 19.434 44.001 18.2391 44.001 17C44.001 15.7609 44.4611 14.566 45.2921 13.6468C46.123 12.7277 47.2657 12.1499 48.4985 12.0253C49.7313 11.9008 50.9664 12.2384 51.9644 12.9728C52.9624 13.7072 53.6522 14.786 53.9 16H64V2H48V0H66V18H53.9ZM165.9 50C165.652 51.214 164.962 52.2928 163.964 53.0272C162.966 53.7616 161.731 54.0992 160.498 53.9747C159.266 53.8501 158.123 53.2723 157.292 52.3532C156.461 51.434 156.001 50.2391 156.001 49C156.001 47.7609 156.461 46.566 157.292 45.6468C158.123 44.7277 159.266 44.1499 160.498 44.0253C161.731 43.9008 162.966 44.2384 163.964 44.9728C164.962 45.7072 165.652 46.786 165.9 48H192V0H242V2H194V50H165.9ZM117.9 2C117.769 2.64348 117.512 3.25479 117.144 3.79903C116.777 4.34327 116.306 4.80978 115.758 5.17193C115.21 5.53408 114.596 5.78477 113.951 5.90969C113.307 6.03462 112.643 6.03132 112 5.9C111.357 5.76868 110.745 5.5119 110.201 5.14433C109.657 4.77675 109.19 4.30558 108.828 3.75772C108.097 2.65125 107.835 1.29956 108.1 0L110.17 0C110.011 0.452368 109.962 0.936293 110.029 1.41121C110.095 1.88613 110.275 2.33819 110.552 2.72952C110.829 3.12085 111.196 3.44003 111.622 3.6603C112.048 3.88058 112.52 3.99554 113 3.99554C113.48 3.99554 113.952 3.88058 114.378 3.6603C114.804 3.44003 115.171 3.12085 115.448 2.72952C115.725 2.33819 115.905 1.88613 115.971 1.41121C116.038 0.936293 115.989 0.452368 115.83 0L178 0V34H160V21.9C158.786 21.6522 157.707 20.9624 156.973 19.9644C156.238 18.9664 155.901 17.7313 156.025 16.4985C156.15 15.2657 156.728 14.123 157.647 13.2921C158.566 12.4611 159.761 12.001 161 12.001C162.239 12.001 163.434 12.4611 164.353 13.2921C165.272 14.123 165.85 15.2657 165.975 16.4985C166.099 17.7313 165.762 18.9664 165.027 19.9644C164.293 20.9624 163.214 21.6522 162 21.9V32H176V2H117.9ZM117.9 98C117.652 99.214 116.962 100.293 115.964 101.027C114.966 101.762 113.731 102.099 112.498 101.975C111.266 101.85 110.123 101.272 109.292 100.353C108.461 99.434 108.001 98.2391 108.001 97C108.001 95.7609 108.461 94.566 109.292 93.6468C110.123 92.7277 111.266 92.1499 112.498 92.0253C113.731 91.9008 114.966 92.2384 115.964 92.9728C116.962 93.7072 117.652 94.786 117.9 96H137L169 64H208V21.9C206.786 21.6522 205.707 20.9624 204.973 19.9644C204.238 18.9664 203.901 17.7313 204.025 16.4985C204.15 15.2657 204.728 14.123 205.647 13.2921C206.566 12.4611 207.761 12.001 209 12.001C210.239 12.001 211.434 12.4611 212.353 13.2921C213.272 14.123 213.85 15.2657 213.975 16.4985C214.099 17.7313 213.762 18.9664 213.027 19.9644C212.293 20.9624 211.214 21.6522 210 21.9V66H169.83L137.83 98H117.9ZM146 188.1C147.214 188.348 148.293 189.038 149.027 190.036C149.762 191.034 150.099 192.269 149.975 193.502C149.85 194.734 149.272 195.877 148.353 196.708C147.434 197.539 146.239 197.999 145 197.999C143.761 197.999 142.566 197.539 141.647 196.708C140.728 195.877 140.15 194.734 140.025 193.502C139.901 192.269 140.238 191.034 140.973 190.036C141.707 189.038 142.786 188.348 144 188.1V111.59L175.59 80H224V21.9C222.786 21.6522 221.707 20.9624 220.973 19.9644C220.238 18.9664 219.901 17.7313 220.025 16.4985C220.15 15.2657 220.728 14.123 221.647 13.2921C222.566 12.4611 223.761 12.001 225 12.001C226.239 12.001 227.434 12.4611 228.353 13.2921C229.272 14.123 229.85 15.2657 229.975 16.4985C230.099 17.7313 229.762 18.9664 229.027 19.9644C228.293 20.9624 227.214 21.6522 226 21.9V82H176.41L146 112.41V188.1ZM162 220.1C163.214 220.348 164.293 221.038 165.027 222.036C165.762 223.034 166.099 224.269 165.975 225.502C165.85 226.734 165.272 227.877 164.353 228.708C163.434 229.539 162.239 229.999 161 229.999C159.761 229.999 158.566 229.539 157.647 228.708C156.728 227.877 156.15 226.734 156.025 225.502C155.901 224.269 156.238 223.034 156.973 222.036C157.707 221.038 158.786 220.348 160 220.1V120.59L184.59 96H300.1C300.296 95.0391 300.77 94.1571 301.464 93.4636C302.157 92.7702 303.039 92.296 304 92.1V94.17C303.414 94.3761 302.906 94.7591 302.547 95.266C302.188 95.7729 301.996 96.3788 301.996 97C301.996 97.6212 302.188 98.2271 302.547 98.734C302.906 99.2409 303.414 99.6239 304 99.83V101.9C303.039 101.704 302.157 101.23 301.464 100.536C300.77 99.8429 300.296 98.9609 300.1 98H185.41L162 121.41V220.1ZM18 156.1C19.214 156.348 20.2928 157.038 21.0272 158.036C21.7616 159.034 22.0992 160.269 21.9747 161.502C21.8501 162.734 21.2723 163.877 20.3532 164.708C19.434 165.539 18.2391 165.999 17 165.999C15.7609 165.999 14.566 165.539 13.6468 164.708C12.7277 163.877 12.1499 162.734 12.0253 161.502C11.9008 160.269 12.2384 159.034 12.9728 158.036C13.7072 157.038 14.786 156.348 16 156.1V152.59L64 104.59V48H96V0H98V50H66V105.41L18 153.41V156.1ZM50 53.9V97.41L2 145.41V208H28.1C28.3478 206.786 29.0376 205.707 30.0356 204.973C31.0336 204.238 32.2687 203.901 33.5015 204.025C34.7343 204.15 35.877 204.728 36.7079 205.647C37.5389 206.566 37.999 207.761 37.999 209C37.999 210.239 37.5389 211.434 36.7079 212.353C35.877 213.272 34.7343 213.85 33.5015 213.975C32.2687 214.099 31.0336 213.762 30.0356 213.027C29.0376 212.293 28.3478 211.214 28.1 210H0V144.59L48 96.59V53.9C46.786 53.6522 45.7072 52.9624 44.9728 51.9644C44.2384 50.9664 43.9008 49.7313 44.0253 48.4985C44.1499 47.2657 44.7277 46.123 45.6468 45.2921C46.566 44.4611 47.7609 44.001 49 44.001C50.2391 44.001 51.434 44.4611 52.3532 45.2921C53.2723 46.123 53.8501 47.2657 53.9747 48.4985C54.0992 49.7313 53.7616 50.9664 53.0272 51.9644C52.2928 52.9624 51.214 53.6522 50 53.9ZM34 69.9V89.41L0 123.41V120.59L32 88.59V69.9C30.786 69.6522 29.7072 68.9624 28.9728 67.9644C28.2384 66.9664 27.9008 65.7313 28.0253 64.4985C28.1499 63.2657 28.7277 62.123 29.6468 61.2921C30.566 60.4611 31.7609 60.001 33 60.001C34.2391 60.001 35.434 60.4611 36.3532 61.2921C37.2723 62.123 37.8501 63.2657 37.9747 64.4985C38.0992 65.7313 37.7616 66.9664 37.0272 67.9644C36.2928 68.9624 35.214 69.6522 34 69.9ZM12.1 32C12.3478 30.786 13.0376 29.7072 14.0356 28.9728C15.0336 28.2384 16.2687 27.9008 17.5015 28.0253C18.7343 28.1499 19.877 28.7277 20.7079 29.6468C21.5389 30.566 21.999 31.7609 21.999 33C21.999 34.2391 21.5389 35.434 20.7079 36.3532C19.877 37.2723 18.7343 37.8501 17.5015 37.9747C16.2687 38.0992 15.0336 37.7616 14.0356 37.0272C13.0376 36.2928 12.3478 35.214 12.1 34H9.41L0 43.41V40.6L8.59 32H12.1ZM277.9 50C277.652 51.214 276.962 52.2928 275.964 53.0272C274.966 53.7616 273.731 54.0992 272.498 53.9747C271.266 53.8501 270.123 53.2723 269.292 52.3532C268.461 51.434 268.001 50.2391 268.001 49C268.001 47.7609 268.461 46.566 269.292 45.6468C270.123 44.7277 271.266 44.1499 272.498 44.0253C273.731 43.9008 274.966 44.2384 275.964 44.9728C276.962 45.7072 277.652 46.786 277.9 48H296.59L304 40.59V43.41L297.41 50H277.9ZM261.9 210C261.652 211.214 260.962 212.293 259.964 213.027C258.966 213.762 257.731 214.099 256.498 213.975C255.266 213.85 254.123 213.272 253.292 212.353C252.461 211.434 252.001 210.239 252.001 209C252.001 207.761 252.461 206.566 253.292 205.647C254.123 204.728 255.266 204.15 256.498 204.025C257.731 203.901 258.966 204.238 259.964 204.973C260.962 205.707 261.652 206.786 261.9 208H288V136.59L304 120.59V123.41L290 137.41V210H261.9ZM53.9 242C53.6522 243.214 52.9624 244.293 51.9644 245.027C50.9664 245.762 49.7313 246.099 48.4985 245.975C47.2657 245.85 46.123 245.272 45.2921 244.353C44.4611 243.434 44.001 242.239 44.001 241C44.001 239.761 44.4611 238.566 45.2921 237.647C46.123 236.728 47.2657 236.15 48.4985 236.025C49.7313 235.901 50.9664 236.238 51.9644 236.973C52.9624 237.707 53.6522 238.786 53.9 240H64V217.41L40.59 194H21.9C21.6522 195.214 20.9624 196.293 19.9644 197.027C18.9664 197.762 17.7313 198.099 16.4985 197.975C15.2657 197.85 14.123 197.272 13.2921 196.353C12.4611 195.434 12.001 194.239 12.001 193C12.001 191.761 12.4611 190.566 13.2921 189.647C14.123 188.728 15.2657 188.15 16.4985 188.025C17.7313 187.901 18.9664 188.238 19.9644 188.973C20.9624 189.707 21.6522 190.786 21.9 192H41.41L66 216.59V242H53.9ZM204.1 256C204.348 254.786 205.038 253.707 206.036 252.973C207.034 252.238 208.269 251.901 209.502 252.025C210.734 252.15 211.877 252.728 212.708 253.647C213.539 254.566 213.999 255.761 213.999 257C213.999 258.239 213.539 259.434 212.708 260.353C211.877 261.272 210.734 261.85 209.502 261.975C208.269 262.099 207.034 261.762 206.036 261.027C205.038 260.293 204.348 259.214 204.1 258H96V201.4L56.6 162H37.9C37.6522 163.214 36.9624 164.293 35.9644 165.027C34.9664 165.762 33.7313 166.099 32.4985 165.975C31.2657 165.85 30.123 165.272 29.2921 164.353C28.4611 163.434 28.001 162.239 28.001 161C28.001 159.761 28.4611 158.566 29.2921 157.647C30.123 156.728 31.2657 156.15 32.4985 156.025C33.7313 155.901 34.9664 156.238 35.9644 156.973C36.9624 157.707 37.6522 158.786 37.9 160H57.4L98 200.6V256H204.1ZM53.9 258C53.6522 259.214 52.9624 260.293 51.9644 261.027C50.9664 261.762 49.7313 262.099 48.4985 261.975C47.2657 261.85 46.123 261.272 45.2921 260.353C44.4611 259.434 44.001 258.239 44.001 257C44.001 255.761 44.4611 254.566 45.2921 253.647C46.123 252.728 47.2657 252.15 48.4985 252.025C49.7313 251.901 50.9664 252.238 51.9644 252.973C52.9624 253.707 53.6522 254.786 53.9 256H80V209.41L48.59 178H21.9C21.6522 179.214 20.9624 180.293 19.9644 181.027C18.9664 181.762 17.7313 182.099 16.4985 181.975C15.2657 181.85 14.123 181.272 13.2921 180.353C12.4611 179.434 12.001 178.239 12.001 177C12.001 175.761 12.4611 174.566 13.2921 173.647C14.123 172.728 15.2657 172.15 16.4985 172.025C17.7313 171.901 18.9664 172.238 19.9644 172.973C20.9624 173.707 21.6522 174.786 21.9 176H49.41L82 208.59V258H53.9ZM34 39.8V41.41L9.41 66H0V64H8.59L32 40.59V0H34V39.8ZM2 300.1C2.96089 300.296 3.84294 300.77 4.53638 301.464C5.22982 302.157 5.70403 303.039 5.9 304H3.83C3.69884 303.628 3.4957 303.286 3.23219 302.993C2.96868 302.7 2.64997 302.461 2.29427 302.291C1.93857 302.121 1.55287 302.023 1.1592 302.002C0.765534 301.981 0.371628 302.038 0 302.17L0 256H18V304H16V258H2V300.1ZM34 241V304H32V242H0V240H34V241ZM17 18H0V16H16V0H18V18H17ZM290 16H304V18H288V0H290V16ZM258 289V304H256V290H242V304H240V288H258V289ZM0 92.1C0.726116 91.9555 1.47522 91.9733 2.19362 92.1523C2.91202 92.3313 3.58194 92.6669 4.15538 93.1353C4.72881 93.6036 5.19156 94.1929 5.51047 94.8611C5.82938 95.5292 5.99655 96.2596 6 97C6.00015 97.7415 5.83537 98.4738 5.51759 99.1438C5.19982 99.8137 4.737 100.405 4.16267 100.874C3.58834 101.343 2.91688 101.678 2.19692 101.856C1.47696 102.033 0.726536 102.048 0 101.9L0 99.83C0.452368 99.9891 0.936293 100.038 1.41121 99.9711C1.88613 99.9046 2.33819 99.7253 2.72952 99.4481C3.12085 99.1709 3.44003 98.804 3.6603 98.3781C3.88058 97.9521 3.99554 97.4795 3.99554 97C3.99554 96.5205 3.88058 96.0479 3.6603 95.6219C3.44003 95.196 3.12085 94.8291 2.72952 94.5519C2.33819 94.2747 1.88613 94.0954 1.41121 94.0289C0.936293 93.9625 0.452368 94.0109 0 94.17L0 92.1ZM80 272H82V304H80V272ZM117.9 304H115.83C115.624 303.414 115.241 302.906 114.734 302.547C114.227 302.188 113.621 301.996 113 301.996C112.379 301.996 111.773 302.188 111.266 302.547C110.759 302.906 110.376 303.414 110.17 304H108.1C108.33 302.87 108.943 301.854 109.836 301.124C110.729 300.394 111.847 299.995 113 299.995C114.153 299.995 115.271 300.394 116.164 301.124C117.057 301.854 117.67 302.87 117.9 304ZM5.9 0C6.06034 0.809188 6.0188 1.64542 5.77905 2.43473C5.53929 3.22404 5.10872 3.94211 4.52542 4.52542C3.94211 5.10872 3.22404 5.53929 2.43473 5.77905C1.64542 6.0188 0.809188 6.06034 0 5.9L0 3.83C0.534218 4.01939 1.11116 4.05357 1.664 3.92858C2.21685 3.80359 2.72297 3.52454 3.12376 3.12376C3.52454 2.72297 3.80359 2.21685 3.92858 1.664C4.05357 1.11116 4.01939 0.534218 3.83 0L5.9 0ZM300.1 0H302.17C302.038 0.371628 301.981 0.765534 302.002 1.1592C302.023 1.55287 302.121 1.93857 302.291 2.29427C302.461 2.64997 302.7 2.96868 302.993 3.23219C303.286 3.4957 303.628 3.69884 304 3.83V5.9C303.356 5.7688 302.745 5.5121 302.201 5.14456C301.656 4.77702 301.19 4.30584 300.828 3.75794C300.466 3.21005 300.215 2.59617 300.09 1.95137C299.965 1.30657 299.969 0.643487 300.1 0ZM304 300.1V302.17C303.578 302.319 303.194 302.561 302.878 302.878C302.561 303.194 302.319 303.578 302.17 304H300.1C300.296 303.039 300.77 302.157 301.464 301.464C302.157 300.77 303.039 300.296 304 300.1ZM97 100C97.394 100 97.7841 99.9224 98.148 99.7716C98.512 99.6209 98.8427 99.3999 99.1213 99.1213C99.3999 98.8427 99.6209 98.512 99.7716 98.148C99.9224 97.7841 100 97.394 100 97C100 96.606 99.9224 96.2159 99.7716 95.852C99.6209 95.488 99.3999 95.1573 99.1213 94.8787C98.8427 94.6001 98.512 94.3791 98.148 94.2284C97.7841 94.0776 97.394 94 97 94C96.2044 94 95.4413 94.3161 94.8787 94.8787C94.3161 95.4413 94 96.2044 94 97C94 97.7956 94.3161 98.5587 94.8787 99.1213C95.4413 99.6839 96.2044 100 97 100ZM97 84C97.7956 84 98.5587 83.6839 99.1213 83.1213C99.6839 82.5587 100 81.7956 100 81C100 80.2044 99.6839 79.4413 99.1213 78.8787C98.5587 78.3161 97.7956 78 97 78C96.2044 78 95.4413 78.3161 94.8787 78.8787C94.3161 79.4413 94 80.2044 94 81C94 81.7956 94.3161 82.5587 94.8787 83.1213C95.4413 83.6839 96.2044 84 97 84ZM113 100C113.394 100 113.784 99.9224 114.148 99.7716C114.512 99.6209 114.843 99.3999 115.121 99.1213C115.4 98.8427 115.621 98.512 115.772 98.148C115.922 97.7841 116 97.394 116 97C116 96.606 115.922 96.2159 115.772 95.852C115.621 95.488 115.4 95.1573 115.121 94.8787C114.843 94.6001 114.512 94.3791 114.148 94.2284C113.784 94.0776 113.394 94 113 94C112.204 94 111.441 94.3161 110.879 94.8787C110.316 95.4413 110 96.2044 110 97C110 97.7956 110.316 98.5587 110.879 99.1213C111.441 99.6839 112.204 100 113 100ZM129 116C129.796 116 130.559 115.684 131.121 115.121C131.684 114.559 132 113.796 132 113C132 112.204 131.684 111.441 131.121 110.879C130.559 110.316 129.796 110 129 110C128.204 110 127.441 110.316 126.879 110.879C126.316 111.441 126 112.204 126 113C126 113.796 126.316 114.559 126.879 115.121C127.441 115.684 128.204 116 129 116ZM129 132C129.796 132 130.559 131.684 131.121 131.121C131.684 130.559 132 129.796 132 129C132 128.204 131.684 127.441 131.121 126.879C130.559 126.316 129.796 126 129 126C128.204 126 127.441 126.316 126.879 126.879C126.316 127.441 126 128.204 126 129C126 129.796 126.316 130.559 126.879 131.121C127.441 131.684 128.204 132 129 132ZM81 164C81.7956 164 82.5587 163.684 83.1213 163.121C83.6839 162.559 84 161.796 84 161C84 160.204 83.6839 159.441 83.1213 158.879C82.5587 158.316 81.7956 158 81 158C80.2044 158 79.4413 158.316 78.8787 158.879C78.3161 159.441 78 160.204 78 161C78 161.796 78.3161 162.559 78.8787 163.121C79.4413 163.684 80.2044 164 81 164ZM97 180C97.7956 180 98.5587 179.684 99.1213 179.121C99.6839 178.559 100 177.796 100 177C100 176.204 99.6839 175.441 99.1213 174.879C98.5587 174.316 97.7956 174 97 174C96.2044 174 95.4413 174.316 94.8787 174.879C94.3161 175.441 94 176.204 94 177C94 177.796 94.3161 178.559 94.8787 179.121C95.4413 179.684 96.2044 180 97 180ZM129 228C129.796 228 130.559 227.684 131.121 227.121C131.684 226.559 132 225.796 132 225C132 224.204 131.684 223.441 131.121 222.879C130.559 222.316 129.796 222 129 222C128.204 222 127.441 222.316 126.879 222.879C126.316 223.441 126 224.204 126 225C126 225.796 126.316 226.559 126.879 227.121C127.441 227.684 128.204 228 129 228ZM113 244C113.796 244 114.559 243.684 115.121 243.121C115.684 242.559 116 241.796 116 241C116 240.204 115.684 239.441 115.121 238.879C114.559 238.316 113.796 238 113 238C112.204 238 111.441 238.316 110.879 238.879C110.316 239.441 110 240.204 110 241C110 241.796 110.316 242.559 110.879 243.121C111.441 243.684 112.204 244 113 244ZM145 228C145.796 228 146.559 227.684 147.121 227.121C147.684 226.559 148 225.796 148 225C148 224.204 147.684 223.441 147.121 222.879C146.559 222.316 145.796 222 145 222C144.204 222 143.441 222.316 142.879 222.879C142.316 223.441 142 224.204 142 225C142 225.796 142.316 226.559 142.879 227.121C143.441 227.684 144.204 228 145 228ZM145 196C145.796 196 146.559 195.684 147.121 195.121C147.684 194.559 148 193.796 148 193C148 192.204 147.684 191.441 147.121 190.879C146.559 190.316 145.796 190 145 190C144.204 190 143.441 190.316 142.879 190.879C142.316 191.441 142 192.204 142 193C142 193.796 142.316 194.559 142.879 195.121C143.441 195.684 144.204 196 145 196ZM161 228C161.796 228 162.559 227.684 163.121 227.121C163.684 226.559 164 225.796 164 225C164 224.204 163.684 223.441 163.121 222.879C162.559 222.316 161.796 222 161 222C160.204 222 159.441 222.316 158.879 222.879C158.316 223.441 158 224.204 158 225C158 225.796 158.316 226.559 158.879 227.121C159.441 227.684 160.204 228 161 228ZM193 244C193.796 244 194.559 243.684 195.121 243.121C195.684 242.559 196 241.796 196 241C196 240.204 195.684 239.441 195.121 238.879C194.559 238.316 193.796 238 193 238C192.204 238 191.441 238.316 190.879 238.879C190.316 239.441 190 240.204 190 241C190 241.796 190.316 242.559 190.879 243.121C191.441 243.684 192.204 244 193 244ZM193 228C193.796 228 194.559 227.684 195.121 227.121C195.684 226.559 196 225.796 196 225C196 224.204 195.684 223.441 195.121 222.879C194.559 222.316 193.796 222 193 222C192.204 222 191.441 222.316 190.879 222.879C190.316 223.441 190 224.204 190 225C190 225.796 190.316 226.559 190.879 227.121C191.441 227.684 192.204 228 193 228ZM177 164C177.796 164 178.559 163.684 179.121 163.121C179.684 162.559 180 161.796 180 161C180 160.204 179.684 159.441 179.121 158.879C178.559 158.316 177.796 158 177 158C176.204 158 175.441 158.316 174.879 158.879C174.316 159.441 174 160.204 174 161C174 161.796 174.316 162.559 174.879 163.121C175.441 163.684 176.204 164 177 164ZM193 164C193.796 164 194.559 163.684 195.121 163.121C195.684 162.559 196 161.796 196 161C196 160.204 195.684 159.441 195.121 158.879C194.559 158.316 193.796 158 193 158C192.204 158 191.441 158.316 190.879 158.879C190.316 159.441 190 160.204 190 161C190 161.796 190.316 162.559 190.879 163.121C191.441 163.684 192.204 164 193 164ZM209 260C209.796 260 210.559 259.684 211.121 259.121C211.684 258.559 212 257.796 212 257C212 256.204 211.684 255.441 211.121 254.879C210.559 254.316 209.796 254 209 254C208.204 254 207.441 254.316 206.879 254.879C206.316 255.441 206 256.204 206 257C206 257.796 206.316 258.559 206.879 259.121C207.441 259.684 208.204 260 209 260ZM209 276C209.796 276 210.559 275.684 211.121 275.121C211.684 274.559 212 273.796 212 273C212 272.204 211.684 271.441 211.121 270.879C210.559 270.316 209.796 270 209 270C208.204 270 207.441 270.316 206.879 270.879C206.316 271.441 206 272.204 206 273C206 273.796 206.316 274.559 206.879 275.121C207.441 275.684 208.204 276 209 276ZM225 292C225.796 292 226.559 291.684 227.121 291.121C227.684 290.559 228 289.796 228 289C228 288.204 227.684 287.441 227.121 286.879C226.559 286.316 225.796 286 225 286C224.204 286 223.441 286.316 222.879 286.879C222.316 287.441 222 288.204 222 289C222 289.796 222.316 290.559 222.879 291.121C223.441 291.684 224.204 292 225 292ZM241 148C241.796 148 242.559 147.684 243.121 147.121C243.684 146.559 244 145.796 244 145C244 144.204 243.684 143.441 243.121 142.879C242.559 142.316 241.796 142 241 142C240.204 142 239.441 142.316 238.879 142.879C238.316 143.441 238 144.204 238 145C238 145.796 238.316 146.559 238.879 147.121C239.441 147.684 240.204 148 241 148ZM241 180C241.796 180 242.559 179.684 243.121 179.121C243.684 178.559 244 177.796 244 177C244 176.204 243.684 175.441 243.121 174.879C242.559 174.316 241.796 174 241 174C240.204 174 239.441 174.316 238.879 174.879C238.316 175.441 238 176.204 238 177C238 177.796 238.316 178.559 238.879 179.121C239.441 179.684 240.204 180 241 180ZM257 148C257.796 148 258.559 147.684 259.121 147.121C259.684 146.559 260 145.796 260 145C260 144.204 259.684 143.441 259.121 142.879C258.559 142.316 257.796 142 257 142C256.204 142 255.441 142.316 254.879 142.879C254.316 143.441 254 144.204 254 145C254 145.796 254.316 146.559 254.879 147.121C255.441 147.684 256.204 148 257 148ZM273 132C273.796 132 274.559 131.684 275.121 131.121C275.684 130.559 276 129.796 276 129C276 128.204 275.684 127.441 275.121 126.879C274.559 126.316 273.796 126 273 126C272.204 126 271.441 126.316 270.879 126.879C270.316 127.441 270 128.204 270 129C270 129.796 270.316 130.559 270.879 131.121C271.441 131.684 272.204 132 273 132ZM177 132C177.796 132 178.559 131.684 179.121 131.121C179.684 130.559 180 129.796 180 129C180 128.204 179.684 127.441 179.121 126.879C178.559 126.316 177.796 126 177 126C176.204 126 175.441 126.316 174.879 126.879C174.316 127.441 174 128.204 174 129C174 129.796 174.316 130.559 174.879 131.121C175.441 131.684 176.204 132 177 132ZM177 148C177.796 148 178.559 147.684 179.121 147.121C179.684 146.559 180 145.796 180 145C180 144.204 179.684 143.441 179.121 142.879C178.559 142.316 177.796 142 177 142C176.204 142 175.441 142.316 174.879 142.879C174.316 143.441 174 144.204 174 145C174 145.796 174.316 146.559 174.879 147.121C175.441 147.684 176.204 148 177 148ZM193 116C193.796 116 194.559 115.684 195.121 115.121C195.684 114.559 196 113.796 196 113C196 112.204 195.684 111.441 195.121 110.879C194.559 110.316 193.796 110 193 110C192.204 110 191.441 110.316 190.879 110.879C190.316 111.441 190 112.204 190 113C190 113.796 190.316 114.559 190.879 115.121C191.441 115.684 192.204 116 193 116ZM289 116C289.796 116 290.559 115.684 291.121 115.121C291.684 114.559 292 113.796 292 113C292 112.204 291.684 111.441 291.121 110.879C290.559 110.316 289.796 110 289 110C288.204 110 287.441 110.316 286.879 110.879C286.316 111.441 286 112.204 286 113C286 113.796 286.316 114.559 286.879 115.121C287.441 115.684 288.204 116 289 116ZM273 52C273.796 52 274.559 51.6839 275.121 51.1213C275.684 50.5587 276 49.7956 276 49C276 48.2044 275.684 47.4413 275.121 46.8787C274.559 46.3161 273.796 46 273 46C272.204 46 271.441 46.3161 270.879 46.8787C270.316 47.4413 270 48.2044 270 49C270 49.7956 270.316 50.5587 270.879 51.1213C271.441 51.6839 272.204 52 273 52ZM289 36C289.796 36 290.559 35.6839 291.121 35.1213C291.684 34.5587 292 33.7956 292 33C292 32.2044 291.684 31.4413 291.121 30.8787C290.559 30.3161 289.796 30 289 30C288.204 30 287.441 30.3161 286.879 30.8787C286.316 31.4413 286 32.2044 286 33C286 33.7956 286.316 34.5587 286.879 35.1213C287.441 35.6839 288.204 36 289 36ZM257 36C257.796 36 258.559 35.6839 259.121 35.1213C259.684 34.5587 260 33.7956 260 33C260 32.2044 259.684 31.4413 259.121 30.8787C258.559 30.3161 257.796 30 257 30C256.204 30 255.441 30.3161 254.879 30.8787C254.316 31.4413 254 32.2044 254 33C254 33.7956 254.316 34.5587 254.879 35.1213C255.441 35.6839 256.204 36 257 36ZM257 20C257.796 20 258.559 19.6839 259.121 19.1213C259.684 18.5587 260 17.7956 260 17C260 16.2044 259.684 15.4413 259.121 14.8787C258.559 14.3161 257.796 14 257 14C256.204 14 255.441 14.3161 254.879 14.8787C254.316 15.4413 254 16.2044 254 17C254 17.7956 254.316 18.5587 254.879 19.1213C255.441 19.6839 256.204 20 257 20ZM241 20C241.796 20 242.559 19.6839 243.121 19.1213C243.684 18.5587 244 17.7956 244 17C244 16.2044 243.684 15.4413 243.121 14.8787C242.559 14.3161 241.796 14 241 14C240.204 14 239.441 14.3161 238.879 14.8787C238.316 15.4413 238 16.2044 238 17C238 17.7956 238.316 18.5587 238.879 19.1213C239.441 19.6839 240.204 20 241 20ZM225 20C225.796 20 226.559 19.6839 227.121 19.1213C227.684 18.5587 228 17.7956 228 17C228 16.2044 227.684 15.4413 227.121 14.8787C226.559 14.3161 225.796 14 225 14C224.204 14 223.441 14.3161 222.879 14.8787C222.316 15.4413 222 16.2044 222 17C222 17.7956 222.316 18.5587 222.879 19.1213C223.441 19.6839 224.204 20 225 20ZM209 20C209.796 20 210.559 19.6839 211.121 19.1213C211.684 18.5587 212 17.7956 212 17C212 16.2044 211.684 15.4413 211.121 14.8787C210.559 14.3161 209.796 14 209 14C208.204 14 207.441 14.3161 206.879 14.8787C206.316 15.4413 206 16.2044 206 17C206 17.7956 206.316 18.5587 206.879 19.1213C207.441 19.6839 208.204 20 209 20ZM49 36C49.7956 36 50.5587 35.6839 51.1213 35.1213C51.6839 34.5587 52 33.7956 52 33C52 32.2044 51.6839 31.4413 51.1213 30.8787C50.5587 30.3161 49.7956 30 49 30C48.2044 30 47.4413 30.3161 46.8787 30.8787C46.3161 31.4413 46 32.2044 46 33C46 33.7956 46.3161 34.5587 46.8787 35.1213C47.4413 35.6839 48.2044 36 49 36ZM17 36C17.7956 36 18.5587 35.6839 19.1213 35.1213C19.6839 34.5587 20 33.7956 20 33C20 32.2044 19.6839 31.4413 19.1213 30.8787C18.5587 30.3161 17.7956 30 17 30C16.2044 30 15.4413 30.3161 14.8787 30.8787C14.3161 31.4413 14 32.2044 14 33C14 33.7956 14.3161 34.5587 14.8787 35.1213C15.4413 35.6839 16.2044 36 17 36ZM49 52C49.7956 52 50.5587 51.6839 51.1213 51.1213C51.6839 50.5587 52 49.7956 52 49C52 48.2044 51.6839 47.4413 51.1213 46.8787C50.5587 46.3161 49.7956 46 49 46C48.2044 46 47.4413 46.3161 46.8787 46.8787C46.3161 47.4413 46 48.2044 46 49C46 49.7956 46.3161 50.5587 46.8787 51.1213C47.4413 51.6839 48.2044 52 49 52ZM33 68C33.7956 68 34.5587 67.6839 35.1213 67.1213C35.6839 66.5587 36 65.7956 36 65C36 64.2044 35.6839 63.4413 35.1213 62.8787C34.5587 62.3161 33.7956 62 33 62C32.2044 62 31.4413 62.3161 30.8787 62.8787C30.3161 63.4413 30 64.2044 30 65C30 65.7956 30.3161 66.5587 30.8787 67.1213C31.4413 67.6839 32.2044 68 33 68ZM49 20C49.7956 20 50.5587 19.6839 51.1213 19.1213C51.6839 18.5587 52 17.7956 52 17C52 16.2044 51.6839 15.4413 51.1213 14.8787C50.5587 14.3161 49.7956 14 49 14C48.2044 14 47.4413 14.3161 46.8787 14.8787C46.3161 15.4413 46 16.2044 46 17C46 17.7956 46.3161 18.5587 46.8787 19.1213C47.4413 19.6839 48.2044 20 49 20ZM49 260C49.7956 260 50.5587 259.684 51.1213 259.121C51.6839 258.559 52 257.796 52 257C52 256.204 51.6839 255.441 51.1213 254.879C50.5587 254.316 49.7956 254 49 254C48.2044 254 47.4413 254.316 46.8787 254.879C46.3161 255.441 46 256.204 46 257C46 257.796 46.3161 258.559 46.8787 259.121C47.4413 259.684 48.2044 260 49 260ZM65 292C65.7956 292 66.5587 291.684 67.1213 291.121C67.6839 290.559 68 289.796 68 289C68 288.204 67.6839 287.441 67.1213 286.879C66.5587 286.316 65.7956 286 65 286C64.2044 286 63.4413 286.316 62.8787 286.879C62.3161 287.441 62 288.204 62 289C62 289.796 62.3161 290.559 62.8787 291.121C63.4413 291.684 64.2044 292 65 292ZM49 228C49.7956 228 50.5587 227.684 51.1213 227.121C51.6839 226.559 52 225.796 52 225C52 224.204 51.6839 223.441 51.1213 222.879C50.5587 222.316 49.7956 222 49 222C48.2044 222 47.4413 222.316 46.8787 222.879C46.3161 223.441 46 224.204 46 225C46 225.796 46.3161 226.559 46.8787 227.121C47.4413 227.684 48.2044 228 49 228ZM49 244C49.7956 244 50.5587 243.684 51.1213 243.121C51.6839 242.559 52 241.796 52 241C52 240.204 51.6839 239.441 51.1213 238.879C50.5587 238.316 49.7956 238 49 238C48.2044 238 47.4413 238.316 46.8787 238.879C46.3161 239.441 46 240.204 46 241C46 241.796 46.3161 242.559 46.8787 243.121C47.4413 243.684 48.2044 244 49 244ZM33 212C33.7956 212 34.5587 211.684 35.1213 211.121C35.6839 210.559 36 209.796 36 209C36 208.204 35.6839 207.441 35.1213 206.879C34.5587 206.316 33.7956 206 33 206C32.2044 206 31.4413 206.316 30.8787 206.879C30.3161 207.441 30 208.204 30 209C30 209.796 30.3161 210.559 30.8787 211.121C31.4413 211.684 32.2044 212 33 212ZM113 36C113.796 36 114.559 35.6839 115.121 35.1213C115.684 34.5587 116 33.7956 116 33C116 32.2044 115.684 31.4413 115.121 30.8787C114.559 30.3161 113.796 30 113 30C112.204 30 111.441 30.3161 110.879 30.8787C110.316 31.4413 110 32.2044 110 33C110 33.7956 110.316 34.5587 110.879 35.1213C111.441 35.6839 112.204 36 113 36ZM129 36C129.796 36 130.559 35.6839 131.121 35.1213C131.684 34.5587 132 33.7956 132 33C132 32.2044 131.684 31.4413 131.121 30.8787C130.559 30.3161 129.796 30 129 30C128.204 30 127.441 30.3161 126.879 30.8787C126.316 31.4413 126 32.2044 126 33C126 33.7956 126.316 34.5587 126.879 35.1213C127.441 35.6839 128.204 36 129 36ZM113 20C113.796 20 114.559 19.6839 115.121 19.1213C115.684 18.5587 116 17.7956 116 17C116 16.2044 115.684 15.4413 115.121 14.8787C114.559 14.3161 113.796 14 113 14C112.204 14 111.441 14.3161 110.879 14.8787C110.316 15.4413 110 16.2044 110 17C110 17.7956 110.316 18.5587 110.879 19.1213C111.441 19.6839 112.204 20 113 20ZM145 68C145.796 68 146.559 67.6839 147.121 67.1213C147.684 66.5587 148 65.7956 148 65C148 64.2044 147.684 63.4413 147.121 62.8787C146.559 62.3161 145.796 62 145 62C144.204 62 143.441 62.3161 142.879 62.8787C142.316 63.4413 142 64.2044 142 65C142 65.7956 142.316 66.5587 142.879 67.1213C143.441 67.6839 144.204 68 145 68ZM161 52C161.796 52 162.559 51.6839 163.121 51.1213C163.684 50.5587 164 49.7956 164 49C164 48.2044 163.684 47.4413 163.121 46.8787C162.559 46.3161 161.796 46 161 46C160.204 46 159.441 46.3161 158.879 46.8787C158.316 47.4413 158 48.2044 158 49C158 49.7956 158.316 50.5587 158.879 51.1213C159.441 51.6839 160.204 52 161 52ZM161 20C161.796 20 162.559 19.6839 163.121 19.1213C163.684 18.5587 164 17.7956 164 17C164 16.2044 163.684 15.4413 163.121 14.8787C162.559 14.3161 161.796 14 161 14C160.204 14 159.441 14.3161 158.879 14.8787C158.316 15.4413 158 16.2044 158 17C158 17.7956 158.316 18.5587 158.879 19.1213C159.441 19.6839 160.204 20 161 20ZM273 196C273.796 196 274.559 195.684 275.121 195.121C275.684 194.559 276 193.796 276 193C276 192.204 275.684 191.441 275.121 190.879C274.559 190.316 273.796 190 273 190C272.204 190 271.441 190.316 270.879 190.879C270.316 191.441 270 192.204 270 193C270 193.796 270.316 194.559 270.879 195.121C271.441 195.684 272.204 196 273 196ZM257 212C257.796 212 258.559 211.684 259.121 211.121C259.684 210.559 260 209.796 260 209C260 208.204 259.684 207.441 259.121 206.879C258.559 206.316 257.796 206 257 206C256.204 206 255.441 206.316 254.879 206.879C254.316 207.441 254 208.204 254 209C254 209.796 254.316 210.559 254.879 211.121C255.441 211.684 256.204 212 257 212ZM257 228C257.796 228 258.559 227.684 259.121 227.121C259.684 226.559 260 225.796 260 225C260 224.204 259.684 223.441 259.121 222.879C258.559 222.316 257.796 222 257 222C256.204 222 255.441 222.316 254.879 222.879C254.316 223.441 254 224.204 254 225C254 225.796 254.316 226.559 254.879 227.121C255.441 227.684 256.204 228 257 228ZM257 244C257.796 244 258.559 243.684 259.121 243.121C259.684 242.559 260 241.796 260 241C260 240.204 259.684 239.441 259.121 238.879C258.559 238.316 257.796 238 257 238C256.204 238 255.441 238.316 254.879 238.879C254.316 239.441 254 240.204 254 241C254 241.796 254.316 242.559 254.879 243.121C255.441 243.684 256.204 244 257 244ZM17 180C17.7956 180 18.5587 179.684 19.1213 179.121C19.6839 178.559 20 177.796 20 177C20 176.204 19.6839 175.441 19.1213 174.879C18.5587 174.316 17.7956 174 17 174C16.2044 174 15.4413 174.316 14.8787 174.879C14.3161 175.441 14 176.204 14 177C14 177.796 14.3161 178.559 14.8787 179.121C15.4413 179.684 16.2044 180 17 180ZM17 196C17.7956 196 18.5587 195.684 19.1213 195.121C19.6839 194.559 20 193.796 20 193C20 192.204 19.6839 191.441 19.1213 190.879C18.5587 190.316 17.7956 190 17 190C16.2044 190 15.4413 190.316 14.8787 190.879C14.3161 191.441 14 192.204 14 193C14 193.796 14.3161 194.559 14.8787 195.121C15.4413 195.684 16.2044 196 17 196ZM17 164C17.7956 164 18.5587 163.684 19.1213 163.121C19.6839 162.559 20 161.796 20 161C20 160.204 19.6839 159.441 19.1213 158.879C18.5587 158.316 17.7956 158 17 158C16.2044 158 15.4413 158.316 14.8787 158.879C14.3161 159.441 14 160.204 14 161C14 161.796 14.3161 162.559 14.8787 163.121C15.4413 163.684 16.2044 164 17 164ZM33 164C33.7956 164 34.5587 163.684 35.1213 163.121C35.6839 162.559 36 161.796 36 161C36 160.204 35.6839 159.441 35.1213 158.879C34.5587 158.316 33.7956 158 33 158C32.2044 158 31.4413 158.316 30.8787 158.879C30.3161 159.441 30 160.204 30 161C30 161.796 30.3161 162.559 30.8787 163.121C31.4413 163.684 32.2044 164 33 164ZM17 84C17.7956 84 18.5587 83.6839 19.1213 83.1213C19.6839 82.5587 20 81.7956 20 81C20 80.2044 19.6839 79.4413 19.1213 78.8787C18.5587 78.3161 17.7956 78 17 78C16.2044 78 15.4413 78.3161 14.8787 78.8787C14.3161 79.4413 14 80.2044 14 81C14 81.7956 14.3161 82.5587 14.8787 83.1213C15.4413 83.6839 16.2044 84 17 84ZM49 148C49.7956 148 50.5587 147.684 51.1213 147.121C51.6839 146.559 52 145.796 52 145C52 144.204 51.6839 143.441 51.1213 142.879C50.5587 142.316 49.7956 142 49 142C48.2044 142 47.4413 142.316 46.8787 142.879C46.3161 143.441 46 144.204 46 145C46 145.796 46.3161 146.559 46.8787 147.121C47.4413 147.684 48.2044 148 49 148ZM65 132C65.7956 132 66.5587 131.684 67.1213 131.121C67.6839 130.559 68 129.796 68 129C68 128.204 67.6839 127.441 67.1213 126.879C66.5587 126.316 65.7956 126 65 126C64.2044 126 63.4413 126.316 62.8787 126.879C62.3161 127.441 62 128.204 62 129C62 129.796 62.3161 130.559 62.8787 131.121C63.4413 131.684 64.2044 132 65 132Z" fill="white" fill-opacity="0.2"/>
</g>
<defs>
<clipPath id="clip0_1263_635">
<rect width="304" height="304" fill="white"/>
</clipPath>
</defs>
</svg>
